<?xml version="1.0" standalone="no"?>
<!DOCTYPE svg PUBLIC "-//W3C//DTD SVG 20010904//EN"
 "http://www.w3.org/TR/2001/REC-SVG-20010904/DTD/svg10.dtd">
<svg version="1.0" xmlns="http://www.w3.org/2000/svg"
 width="500.000000pt" height="500.000000pt" viewBox="0 0 500.000000 500.000000"
 preserveAspectRatio="xMidYMid meet">
<metadata>
Created by potrace 1.14, written by Peter Selinger 2001-2017
</metadata>
<g transform="translate(0.000000,500.000000) scale(0.100000,-0.100000)"
fill="#000000" stroke="none">
<path d="M2271 4188 l-223 -223 6 161 c3 88 8 168 12 177 6 16 -16 17 -266 17
l-272 0 6 -27 c4 -16 9 -207 13 -427 l6 -398 -284 -284 -284 -284 200 -200
200 -200 -200 -200 -200 -200 288 -288 c158 -158 287 -290 287 -294 0 -3 -79
-132 -175 -287 -96 -155 -175 -284 -175 -286 0 -3 182 -5 405 -5 l405 0 21 41
21 42 219 -219 219 -219 223 223 c122 122 225 222 229 222 4 0 12 -18 18 -40
l11 -40 405 0 405 0 -40 54 c-88 119 -321 486 -321 505 0 4 130 137 290 296
l290 290 -202 202 -203 203 203 203 203 203 -271 269 -271 270 5 415 c2 228 8
430 12 448 l6 32 -273 0 -274 0 -3 -172 c-1 -94 -5 -174 -8 -177 -2 -3 -100
90 -217 207 -117 117 -214 212 -217 212 -3 0 -106 -100 -229 -222z m1181 -500
c-1 -348 -7 -678 -12 -733 -24 -256 -120 -455 -284 -586 -49 -40 -163 -109
-179 -109 -3 0 -39 56 -81 124 l-76 124 0 82 c0 79 1 83 34 122 19 22 45 61
56 86 46 97 50 146 50 677 0 275 3 578 7 673 l6 172 241 0 241 0 -3 -632z
m-1175 -1229 c120 -57 196 -215 210 -435 l6 -101 -163 -319 c-89 -176 -199
-390 -243 -476 l-81 -158 -374 0 c-301 0 -373 3 -369 13 3 7 139 229 302 492
164 264 372 600 463 748 182 295 162 276 249 236z"/>
<path d="M3877 2682 l-177 -177 180 -180 180 -180 179 179 179 179 -180 178
c-99 99 -181 179 -182 179 -1 0 -81 -80 -179 -178z"/>
<path d="M760 2675 l-175 -175 175 -175 175 -175 177 177 177 177 -172 173
c-95 95 -174 173 -177 173 -3 0 -84 -79 -180 -175z"/>
</g>
</svg>
